<svg version="1.0" xmlns="http://www.w3.org/2000/svg" width="700pt" height="700pt" viewBox="0 0 700 700"><g transform="translate(0.000000,700.000000) scale(0.100000,-0.100000)" fill="#000" stroke="none"><path d="M1035 5988c-3-7-4-535-3-1173l3-1160 753-3 752-2v-290-290H1530 520v-295-295h1010 1010v-550-550h320 320v550 550h920 920v-318c0-285 2-327 20-396 27-105 73-189 145-262 176-178 437-223 663-112 92 45 208 160 250 248 63 130 62 119 62 842v657l-25 78c-47 148-154 273-290 337-93 44-152 57-257 57-160 0-281-51-399-170-90-90-132-169-156-289l-16-82h-919-918v290 290h765 765v1175V6e3H2875c-1459 0-1837-3-1840-12zm3045-723v-185H2860 1640v185 185h1220 1220v-185zm0-880v-185H2860 1640v185 185h1220 1220v-185z"/><path d="M4260 1858c0-24 7-86 14-138 60-398 318-750 697-954 93-50 296-121 378-132l51-7V314 0h190 190l2 312 3 311 70 14c396 79 758 357 939 721 73 145 126 350 126 483v59h-159-158l-7-79c-21-250-156-503-353-659-212-169-499-254-753-223-362 44-654 242-809 548-45 89-81 224-88 326l-6 87h-163-164v-42z"/></g></svg>