<?xml version="1.0" standalone="no"?>
<!DOCTYPE svg PUBLIC "-//W3C//DTD SVG 20010904//EN"
 "http://www.w3.org/TR/2001/REC-SVG-20010904/DTD/svg10.dtd">
<svg version="1.0" xmlns="http://www.w3.org/2000/svg"
 width="700.000000pt" height="700.000000pt" viewBox="0 0 700.000000 700.000000"
 preserveAspectRatio="xMidYMid meet">
<metadata>
Created by potrace 1.14, written by Peter Selinger 2001-2017
</metadata>
<g transform="translate(0.000000,700.000000) scale(0.100000,-0.100000)"
fill="#000000" stroke="none">
<path d="M1035 5988 c-3 -7 -4 -535 -3 -1173 l3 -1160 753 -3 752 -2 0 -290 0
-290 -1010 0 -1010 0 0 -295 0 -295 1010 0 1010 0 0 -550 0 -550 320 0 320 0
0 550 0 550 920 0 920 0 0 -318 c0 -285 2 -327 20 -396 27 -105 73 -189 145
-262 176 -178 437 -223 663 -112 92 45 208 160 250 248 63 130 62 119 62 842
l0 657 -25 78 c-47 148 -154 273 -290 337 -93 44 -152 57 -257 57 -160 0 -281
-51 -399 -170 -90 -90 -132 -169 -156 -289 l-16 -82 -919 0 -918 0 0 290 0
290 765 0 765 0 0 1175 0 1175 -1835 0 c-1459 0 -1837 -3 -1840 -12z m3045
-723 l0 -185 -1220 0 -1220 0 0 185 0 185 1220 0 1220 0 0 -185z m0 -880 l0
-185 -1220 0 -1220 0 0 185 0 185 1220 0 1220 0 0 -185z"/>
<path d="M4260 1858 c0 -24 7 -86 14 -138 60 -398 318 -750 697 -954 93 -50
296 -121 378 -132 l51 -7 0 -313 0 -314 190 0 190 0 2 312 3 311 70 14 c396
79 758 357 939 721 73 145 126 350 126 483 l0 59 -159 0 -158 0 -7 -79 c-21
-250 -156 -503 -353 -659 -212 -169 -499 -254 -753 -223 -362 44 -654 242
-809 548 -45 89 -81 224 -88 326 l-6 87 -163 0 -164 0 0 -42z"/>
</g>
</svg>
